<?xml version="1.0" encoding="UTF-8" standalone="no"?>
<!-- Created with Inkscape (http://www.inkscape.org/) -->

<svg
   version="1.1"
   id="svg1"
   width="1024"
   height="768"
   viewBox="0 0 1024 768"
   sodipodi:docname="harvey.jpg"
   inkscape:version="1.4.3 (0d15f75, 2025-12-25)"
   xmlns:inkscape="http://www.inkscape.org/namespaces/inkscape"
   xmlns:sodipodi="http://sodipodi.sourceforge.net/DTD/sodipodi-0.dtd"
   xmlns="http://www.w3.org/2000/svg"
   xmlns:svg="http://www.w3.org/2000/svg">
  <defs
     id="defs1" />
  <sodipodi:namedview
     id="namedview1"
     pagecolor="#ffffff"
     bordercolor="#666666"
     borderopacity="1.0"
     inkscape:showpageshadow="2"
     inkscape:pageopacity="0.0"
     inkscape:pagecheckerboard="0"
     inkscape:deskcolor="#d1d1d1"
     showgrid="false"
     inkscape:zoom="0.70710678"
     inkscape:cx="511.94531"
     inkscape:cy="378.30213"
     inkscape:window-width="1024"
     inkscape:window-height="1022"
     inkscape:window-x="50"
     inkscape:window-y="30"
     inkscape:window-maximized="0"
     inkscape:current-layer="g1" />
  <g
     inkscape:groupmode="layer"
     inkscape:label="Image"
     id="g1">
    <path
       style="fill:#000000"
       d="m 382.27729,739.48887 c -3.42249,-0.74367 -9.72249,-2.91119 -14,-4.81671 -4.27751,-1.90551 -8.79222,-3.76738 -10.03269,-4.13747 -3.53237,-1.05387 -8.13809,-5.40559 -10.38734,-9.81449 -1.66781,-3.26916 -1.9893,-5.46363 -1.70615,-11.64592 0.85782,-18.72965 16.71398,-36.10537 38.12422,-41.77781 4.26613,-1.13027 10.23634,-1.64084 18.97467,-1.62271 7.0125,0.0145 12.75,-0.0806 12.75,-0.21138 0,-0.13081 -1.38641,-3.20052 -3.08091,-6.82159 -1.6945,-3.62106 -4.56867,-10.7506 -6.38705,-15.84343 l -3.30615,-9.25968 -5.36294,-1.60748 c -8.67436,-2.60004 -15.02894,-6.35475 -20.42999,-12.07139 C 368.08011,609.95944 363,597.96057 363,585.7691 c 0,-8.34393 1.21907,-11.18192 4.45443,-10.36989 2.21203,0.55518 2.30572,0.31101 2.74824,-7.16222 0.28449,-4.80447 1.25061,-9.51803 2.54895,-12.436 l 2.09081,-4.699 -5.23498,-2.95444 C 348.43554,536.19886 340.60726,514.89346 350.26309,495.5 c 2.43753,-4.89572 20.48633,-23.47427 34.874,-35.89758 12.14694,-10.48851 21.87134,-17.27606 33.36291,-23.28704 6.52123,-3.4111 7.63031,-4.31495 6,-4.88974 -21.19376,-7.47218 -39.32288,-19.24423 -48.03174,-31.18915 l -3.83754,-5.2635 -1.26709,3.0135 c -1.51584,3.60512 -2.35812,3.7319 -5.07234,0.76351 -5.38867,-5.89329 -8.47151,-18.96277 -6.60085,-27.98387 0.60061,-2.89637 0.91418,-5.4554 0.69684,-5.68674 -0.21734,-0.23134 -1.52435,0.64021 -2.90447,1.93676 -3.6827,3.45972 -4.99219,1.52036 -4.9417,-7.31873 0.0481,-8.41818 2.83685,-14.85687 9.44253,-21.80088 2.53944,-2.66951 3.68448,-4.60796 3.132,-5.30221 -0.47898,-0.60188 -1.21284,-2.21933 -1.63081,-3.59433 -0.41797,-1.375 -1.59805,-3.57319 -2.62239,-4.88486 -4.93936,-6.32487 1.44867,-15.12054 9.98968,-13.75478 l 3.82072,0.61096 0.20491,-6.23566 c 0.98145,-29.86517 13.79737,-59.89796 34.95199,-81.90636 l 5.45071,-5.6707 -11.4583,-11.3293 c -6.30206,-6.23112 -14.31919,-14.69517 -17.81583,-18.80901 -6.31075,-7.42467 -20.04469,-25.47954 -21.89008,-28.77706 -0.83401,-1.4903 -1.87603,-0.83784 -7.80798,4.88897 -15.40666,14.87388 -36.13306,24.07798 -50.80826,22.56273 -13.1548,-1.35826 -25.45643,-9.98607 -31.23857,-21.90932 -13.03779,-26.88502 -7.73482,-67.049415 12.33289,-93.408508 9.17378,-12.04983 21.1123,-19.591193 34.22814,-21.621335 6.26528,-0.969776 8.122,-0.839641 16.16565,1.133036 l 9.0874,2.228649 5.21224,-4.689012 c 15.06731,-13.554767 32.4829,-21.444591 47.27614,-21.417616 10.93345,0.01994 20.00519,3.918292 29.43566,12.649242 24.04184,22.258505 39.6342,69.344334 44.57643,134.611974 l 0.66425,8.77204 4.12988,-3.3826 c 4.81887,-3.94691 14.99638,-9.26048 21.54392,-11.24785 5.3662,-1.6288 12.44007,-1.82967 15.0598,-0.42764 1.65058,0.88337 1.91224,0.44098 2.51382,-4.25 2.85782,-22.28457 6.7847,-39.39622 13.69995,-59.69847 13.04918,-38.310669 34.28643,-69.020395 54.26798,-78.473178 15.53632,-7.349857 36.07026,-3.389864 56.63602,10.922315 l 5.95812,4.146392 7.22514,-1.897074 c 9.5088,-2.496685 19.06464,-1.285659 29.22514,3.703745 27.12856,13.321724 50.43244,53.559654 50.48686,87.17379 0.0244,15.05263 -2.82757,23.88989 -10.14205,31.42697 -13.99665,14.42259 -39.05554,11.05337 -63.54972,-8.54439 -4.42093,-3.53718 -12.21471,-10.83333 -17.31952,-16.21366 -5.11446,-5.39051 -9.47168,-9.23028 -9.70513,-8.55259 -1.8285,5.30789 -40.26732,51.82164 -59.18361,71.61645 -5.17118,5.41134 -5.44627,5.93213 -3.69751,7 13.19221,8.05577 25.50018,19.17985 32.28625,29.18069 8.76256,12.91365 16.56441,32.34105 19.36588,48.22302 0.70337,3.9875 1.35555,7.25 1.44929,7.25 0.0937,0 5.04931,0.87982 11.01239,1.95517 9.06558,1.63482 11.01848,1.73329 11.91941,0.60097 3.23913,-4.07106 10.57746,-1.09206 10.57746,4.29393 0,4.12259 -2.68918,7.32247 -5.84669,6.95702 -2.16743,-0.25086 -3.34001,0.59581 -6.40331,4.62352 -2.0625,2.71183 -3.75,5.20231 -3.75,5.53439 0,0.33208 1.33201,1.39062 2.96003,2.35232 6.18264,3.65218 14.75793,17.14985 16.95563,26.68851 2.22845,9.67213 0.71826,25.64248 -2.93087,30.99417 -0.88698,1.30081 -1.21809,1.24411 -2.49346,-0.427 -1.73962,-2.27941 -1.79706,-2.22824 -3.28575,2.927 -2.99363,10.36675 -15.38488,26.00878 -27.9747,35.31372 -10.33775,7.64048 -24.30896,14.7744 -39.53498,20.18721 l -4.80409,1.70784 6.30409,3.96849 c 3.46726,2.18267 12.1541,8.8531 19.3041,14.82317 11.42906,9.54299 24.45147,19.62541 28.28182,21.89682 0.70501,0.41806 4.18116,-0.27969 7.72479,-1.55058 5.01127,-1.79724 6.69815,-2.92679 7.5914,-5.08329 1.05902,-2.55669 6.4085,-8.0419 8.67758,-8.89775 0.53317,-0.20109 2.08993,-2.61563 3.45947,-5.36563 l 2.49007,-5 -3.28221,-3.31333 C 655.26693,439.9616 652.62566,433.53434 652.5582,426 c -0.1106,-12.3529 6.90566,-20.0527 18.97273,-20.82107 6.04103,-0.38467 6.53292,-0.59529 7.11373,-3.04608 2.21405,-9.34239 16.65536,-13.01412 54.35534,-13.81993 32.85244,-0.70221 52.5929,1.98707 59.73362,8.13761 l 2.76638,2.38277 -0.0357,13.33335 c -0.025,9.32162 -0.55304,15.28907 -1.75511,19.83335 -2.39286,9.04598 -8.77336,21.55317 -14.045,27.53134 l -4.43672,5.03134 1.9478,2.40543 c 2.17342,2.68406 1.8,6.277 -0.97202,9.35245 -1.00737,1.11765 -1.52873,3.12288 -1.35033,5.19357 0.97108,11.2713 -12.13747,21.5815 -25.42002,19.99347 -4.68275,-0.55986 -5.15165,-0.42027 -6.18161,1.84023 -0.61297,1.34533 -2.79095,3.72475 -4.83996,5.28761 -3.20661,2.4458 -4.783,2.88499 -11.3184,3.15339 -4.92095,0.2021 -8.82458,0.95967 -11.09292,2.15279 -5.03696,2.64936 -9.33734,3.33536 -13.57458,2.1654 -3.43767,-0.94919 -3.98393,-0.7848 -7.55788,2.27436 -3.62789,3.10534 -9.55375,5.61862 -13.24769,5.61862 -0.90646,0 -4.10002,1.99711 -7.0968,4.43802 -2.99678,2.44091 -9.62792,6.51233 -14.73587,9.04758 -16.38281,8.13137 -27.63814,8.41112 -40.08542,0.99631 l -5.96619,-3.55404 0.69176,3.28607 c 2.51584,11.95112 3.75178,21.40761 3.76227,28.78606 0.0205,14.42598 -1.86923,36.00638 -4.08938,46.69992 -2.22617,10.72249 -9.22023,31.92349 -14.17279,42.96183 -1.61009,3.58858 -2.92743,6.62314 -2.92743,6.74348 0,0.12034 3.2625,-0.35375 7.25,-1.05352 9.83542,-1.72605 23.89077,-1.64254 31.65693,0.18807 16.47145,3.8826 29.26929,15.57806 34.07617,31.14093 3.19414,10.34143 2.33603,18.40971 -2.57926,24.2512 -3.58809,4.2642 -19.82195,12.73547 -29.05789,15.16318 -23.9673,6.29994 -70.23943,1.78028 -105.29654,-10.2849 -12.42515,-4.27622 -17.18593,-6.73931 -19.55016,-10.11472 -2.06496,-2.94814 -1.90622,-14.8205 0.2834,-21.19547 1.45921,-4.24844 1.56704,-6.27765 0.71735,-13.5 l -1,-8.5 -6.55882,-0.29133 -6.55882,-0.29133 -1.77941,9.44751 c -1.75985,9.34377 -1.75572,9.54205 0.37693,18.05482 2.73144,10.90298 1.72517,17.96784 -3.14261,22.0638 -10.00145,8.41567 -40.92359,18.3629 -66.81104,21.49221 -11.9058,1.43919 -39.19289,1.15504 -46.74894,-0.48681 z M 421.5,733.51544 c 25.22336,-1.46006 67.63905,-14.30119 71.58354,-21.67154 1.18018,-2.20518 0.86214,-15.50473 -0.42039,-17.57992 -0.44001,-0.71195 -3.03177,-0.23984 -7.81484,1.42355 -3.93608,1.36883 -9.56216,2.73707 -12.5024,3.04053 -3.80583,0.3928 -5.34591,0.97831 -5.34591,2.03242 0,0.87515 -1.58602,-0.1536 -3.87822,-2.51556 -16.61797,-17.12368 -43.73832,-27.75249 -65.99692,-25.86503 -15.01801,1.27348 -24.72195,5.33093 -33.03707,13.81361 -11.75379,11.99065 -15.40736,28.77266 -7.80581,35.85458 3.0859,2.87495 4.05306,2.40395 3.39468,-1.65318 -1.42868,-8.8039 3.50304,-21.47936 11.44848,-29.4248 7.33645,-7.33645 9.80746,-8.08683 4.27905,-1.29943 -11.97595,14.70324 -14.64204,33.38432 -5.52269,38.69705 4.57071,2.66279 17.33373,5.61491 24.31648,5.62448 l 5.69798,0.008 -1.07839,-3.09348 c -2.76422,-7.92944 1.5272,-21.98575 9.28019,-30.39675 6.03344,-6.54551 8.82257,-7.72636 4.28291,-1.81328 -6.70919,8.73897 -8.8693,14.67676 -8.87533,24.39682 -0.006,9.72131 1.08918,12.06531 5.33188,11.41139 C 410.30175,734.27898 416,733.83381 421.5,733.51544 Z M 617.78138,727.25 C 618.17662,726.2875 618.5,721.675 618.5,717 c 0,-10.34631 -2.74827,-17.12761 -10.18006,-25.11904 -3.48643,-3.74898 -4.12828,-4.82976 -2.31994,-3.90645 7.4268,3.79198 13.66215,11.02754 16.60149,19.26451 1.81358,5.08223 2.0822,15.61498 0.47482,18.61839 -1.08961,2.03597 -0.93343,2.14185 3.13851,2.12781 8.42609,-0.0291 23.73643,-4.95084 26.03544,-8.36955 2.07198,-3.0811 2.83896,-8.97242 1.79926,-13.82038 -1.50639,-7.02406 -6.80241,-17.24325 -11.61941,-22.42078 -4.83867,-5.20084 -4.20243,-5.60771 1.71329,-1.09565 8.85196,6.75162 15.10205,18.44649 15.22219,28.48304 0.0684,5.71776 0.89699,6.1064 4.04094,1.89541 4.22912,-5.66445 1.35477,-19.25407 -6.14941,-29.07373 -4.93159,-6.45328 -11.87529,-11.1063 -20.4694,-13.71668 -6.12064,-1.85908 -8.63754,-2.05402 -20.62944,-1.59775 -15.08145,0.57383 -23.50885,2.41501 -36.89551,8.06079 -8.6052,3.62921 -22.55369,11.7191 -29.9809,17.38843 -4.28056,3.26742 -4.97604,3.47541 -9.74646,2.91474 -4.39359,-0.51638 -11.34796,-2.52261 -17.7162,-5.11085 -2.11334,-0.85892 -3.80544,4.54132 -3.81363,12.17104 -0.007,6.17156 0.80217,6.92927 11.99442,11.23669 19.47483,7.49504 53.29039,13.63308 76.78138,13.93699 8.92745,0.1155 10.37602,-0.0974 11,-1.61698 z m -133.67226,-35.23611 6.60912,-1.98587 1.64662,-10.76401 c 0.90564,-5.92021 1.64404,-11.31788 1.64088,-11.99484 -0.003,-0.67696 -2.14324,-2.38424 -4.75574,-3.79396 l -4.75,-2.56313 7,0.79396 c 3.85,0.43668 13.975,0.7813 22.5,0.76584 13.07614,-0.0237 16.74563,-0.38435 23.46551,-2.30607 8.87421,-2.5378 21.2016,-7.72824 27.73881,-11.67941 4.2052,-2.54167 4.16876,-2.47409 -1.73028,3.20862 -8.78561,8.46342 -24.62187,15.61945 -37.55792,16.97154 l -6.04337,0.63165 0.61322,6.6009 c 1.23008,13.24097 1.41391,13.85085 4.3345,14.38059 1.47374,0.26731 6.56915,1.53511 11.32314,2.81734 l 8.64361,2.33132 6.59455,-6.16888 c 9.59183,-8.97269 24.36058,-18.5034 32.89137,-21.22576 4.35755,-1.3906 5.12158,-2.65849 12.78405,-21.21482 6.6348,-16.06759 11.67306,-35.77245 13.14794,-51.42216 0.64067,-6.79805 0.86886,-12.65608 0.50708,-13.01786 -0.36177,-0.36178 -2.28107,0.58037 -4.2651,2.09366 l -3.60732,2.75144 -4.33337,-3.11199 C 596.12306,582.4004 593.69081,581 593.10141,581 c -0.58941,0 -11.99084,3.56686 -25.33653,7.92636 -13.34568,4.3595 -28.98988,9.35368 -34.76488,11.09819 -5.775,1.74451 -11.4,3.99767 -12.5,5.00703 -6.42438,5.895 -18.05317,5.1101 -25.21979,-1.70224 -2.71353,-2.57938 -8.48618,-5.55894 -20.45768,-10.55927 l -16.67748,-6.96595 -4.65159,3.20038 c -9.74046,6.70161 -13.61664,6.18962 -35.69132,-4.71428 C 410.79823,580.8306 404.89421,578 404.68209,578 c -0.21211,0 -0.65431,3.4875 -0.98267,7.75 -1.43535,18.6327 3.71951,44.00808 13.56713,66.78568 6.33038,14.64222 7.22508,15.99497 11.41212,17.25471 10.49626,3.15797 25.4068,13.02771 32.49184,21.50734 l 3.67051,4.393 6.32949,-0.84549 c 3.48122,-0.46501 9.30359,-1.73912 12.93861,-2.83135 z M 400.58135,622.75 c -3.33665,-16.21805 -4.35146,-32.91322 -2.62892,-43.25 0.46497,-2.79023 0.44765,-5.47636 -0.0392,-6.07784 -0.50015,-0.61795 -0.45442,-2.53521 0.10718,-4.4934 C 399.53495,563.64794 399.294,563 395.81572,563 c -4.44291,0 -10.90885,-3.40915 -13.47364,-7.10395 -2.07929,-2.99539 -2.19766,-3.03441 -3.24849,-1.07092 -2.29643,4.29092 -4.15731,15.2127 -3.48592,20.45943 0.66381,5.18759 3.44212,12.01014 5.37804,13.20661 0.55786,0.34477 1.01429,1.05635 1.01429,1.58127 0,1.48929 -7.19281,-1.8843 -10.23957,-4.80259 -1.50676,-1.44322 -2.98717,-2.37644 -3.28979,-2.07382 -1.10737,1.10736 2.44923,14.7019 5.34252,20.42098 4.50036,8.89572 10.21784,14.75987 18.36426,18.83536 3.90021,1.9512 7.53708,3.54763 8.08194,3.54763 0.58814,0 0.71897,-1.32049 0.32199,-3.25 z m 115.91882,-20.3171 c 2.58925,-1.22869 3.44085,-2.36245 3.94342,-5.25 1.94224,-11.15933 5.57598,-30.05783 11.043,-57.4329 3.37756,-16.9125 6.05476,-30.75 5.94934,-30.75 -0.10543,0 -1.80718,0.675 -3.78169,1.5 -6.75223,2.82126 -13.77367,1.63221 -18.13208,-3.07059 l -2.40123,-2.59097 -0.54498,3.33078 c -0.89689,5.48152 -10.39489,57.3403 -13.06432,71.33078 -4.28279,22.4461 -4.35597,19.87311 0.63542,22.34377 5.14553,2.54697 11.72758,2.78409 16.35312,0.58913 z m 13.57169,-5.87283 c 2.43548,-0.79196 17.76839,-5.74402 34.07314,-11.00457 l 29.645,-9.56464 6.57822,-26.74543 c 6.78696,-27.59406 11.27645,-46.50318 12.13401,-51.10668 0.27036,-1.45131 1.12722,-5.00125 1.90415,-7.88875 0.77693,-2.8875 1.05221,-5.25 0.61174,-5.25 -0.96059,0 -43.60491,12.48787 -60.51812,17.72199 -6.6,2.0425 -12.29757,4.14007 -12.66127,4.66127 -0.36369,0.52119 -0.96382,3.01068 -1.33362,5.53218 -0.3698,2.52151 -3.38002,18.08456 -6.68938,34.58456 -7.17148,35.75593 -9.75337,50.5 -8.84324,50.5 0.36918,0 2.66389,-0.64797 5.09937,-1.43993 z m -33.80085,-20.81172 c 2.07406,-11.13659 5.54488,-29.92335 7.71293,-41.74835 2.16806,-11.825 4.34858,-23.42304 4.84561,-25.77341 0.49704,-2.35038 0.60317,-4.45915 0.23585,-4.68617 -3.13283,-1.93619 -71.96071,-30.64746 -74.02141,-30.87772 -1.94372,-0.2172 -6.77435,35.00828 -5.03841,36.74057 0.6923,0.69084 6.35345,1.10291 15.29673,1.11342 8.77297,0.0103 14.96186,0.45283 16.19769,1.15817 6.43156,3.67079 9.34272,11.86384 6.01828,16.93758 -1.67372,2.55442 -1.65593,2.82179 0.47122,7.08099 2.88763,5.78192 2.09817,10.4189 -2.56837,15.08544 -2.44344,2.44344 -3.4222,4.32134 -3.42487,6.57113 -0.006,5.28271 -3.36126,9.43452 -10.26188,12.69906 -3.42891,1.62215 -7.02188,2.94972 -7.98438,2.95015 -0.9625,4.3e-4 -1.75,0.35161 -1.75,0.78038 0,0.62623 48.21334,22.00465 50,22.17065 0.275,0.0255 2.19696,-9.0653 4.27101,-20.20189 z m -47.16328,-10.01263 c 5.32633,-2.60593 8.77608,-6.49667 7.53738,-8.50093 -0.36523,-0.59095 -2.59332,-0.43646 -5.83588,0.40465 -6.47561,1.67975 -15.39245,1.75379 -19.91001,0.16531 -3.35413,-1.17939 -3.36606,-1.2046 -0.89922,-1.90032 1.375,-0.38779 4.68504,-0.74993 7.35566,-0.80475 9.06229,-0.18604 22.37227,-4.65708 25.66124,-8.62004 1.95012,-2.34976 1.7651,-8.43466 -0.30245,-9.94649 -1.36404,-0.99741 -2.78479,-0.86139 -7.44858,0.71309 -8.61522,2.90848 -18.81744,3.42379 -23.76587,1.20041 l -4,-1.79725 8.52245,-0.72488 c 18.45652,-1.56984 29.36312,-7.26785 27.57191,-14.40458 -1.21597,-4.84483 -4.57727,-5.91432 -17.76883,-5.65366 -16.42145,0.32447 -25.66798,-2.37828 -21.95107,-6.41628 1.50624,-1.63636 2.36561,-14.45 0.96911,-14.45 -2.95092,0 -10.03409,4.49627 -14.34724,9.10737 -2.58436,2.7629 -4.83917,4.88152 -5.01068,4.70804 -0.17151,-0.17348 0.54906,-2.08326 1.60126,-4.24397 1.0522,-2.16071 1.91309,-4.07321 1.91309,-4.25 C 409,500.14465 406.84008,500 404.20017,500 c -12.41717,0 -22.39264,14.12873 -22.59333,32 -0.0847,7.5445 0.25395,9.23871 3.01278,15.07149 2.43216,5.14213 3.8776,6.93657 6.64543,8.25 1.94547,0.92318 4.30845,1.67851 5.25109,1.67851 1.54373,0 1.56878,-0.22337 0.25237,-2.25 -5.61711,-8.64757 -6.66801,-24.76726 -2.25564,-34.59932 1.47886,-3.29535 3.84052,-7.03986 5.24812,-8.32112 2.3205,-2.11222 2.48575,-2.14297 1.77125,-0.32956 -0.43341,1.1 -1.61398,4.09895 -2.6235,6.66433 -2.58668,6.57326 -3.36198,16.21989 -1.96787,24.4851 0.98533,5.84173 1.91756,7.9401 5.62731,12.66671 8.28258,10.55287 15.96543,13.82338 31.46515,13.39442 8.00645,-0.22159 10.4208,-0.69805 15.0744,-2.97484 z m 262.70245,-56.76135 c 1.8349,-1.11871 3.98753,-3.63932 4.83002,-5.65568 1.61488,-3.86495 2.22792,-17.2383 0.96585,-21.06975 -2.68703,-8.15739 -12.60023,-1.14255 -12.6045,8.91927 -0.004,8.64923 -2.59167,8.5768 -3.57334,-0.10001 -0.63513,-5.61379 -0.83248,-5.94675 -4.50682,-7.60365 -4.28751,-1.93339 -10.00399,-1.50744 -15.09401,1.12472 -2.86551,1.48181 -2.92741,1.46615 -1.88729,-0.47732 1.93587,-3.61721 5.2211,-5.11195 11.23536,-5.11195 3.15175,0 6.87852,0.5231 8.28172,1.16244 3.42715,1.56151 4.3534,0.34559 1.84072,-2.41638 -1.12383,-1.23533 -2.24055,-2.89091 -2.48161,-3.67906 -0.32645,-1.06737 -2.33632,-1.45131 -7.87728,-1.5048 -6.74772,-0.0651 -7.88693,-0.38233 -12.25928,-3.41339 -2.65115,-1.83788 -4.60713,-3.55473 -4.34663,-3.81523 0.2605,-0.2605 3.48952,0.45788 7.17561,1.59639 8.6858,2.68277 10.69562,2.61043 14.41457,-0.51886 5.49739,-4.62575 3.68638,-6.35153 -9.42327,-8.97985 -4.4,-0.88214 -10.18942,-2.5428 -12.86537,-3.69035 l -4.86538,-2.08646 -1.83787,2.42277 c -2.56676,3.38364 -4.28398,11.24754 -3.42833,15.6998 0.39353,2.04764 0.66693,6.15211 0.60755,9.12104 -0.13939,6.97039 1.12546,11.50577 4.84409,17.36944 2.90228,4.57642 8.0863,8.72105 10.91775,8.72876 1.16326,0.003 1.16326,-0.24844 0,-1.65079 -1.26952,-1.53046 -1.14747,-1.54069 1.62756,-0.13652 2.8725,1.45349 16.81866,6.17638 21,7.11168 4.07769,0.91211 6.08117,0.62241 9.31018,-1.34626 z M 540.79247,503 c 0.74111,0 4.57848,-1.94826 8.5275,-4.32947 13.62889,-8.21807 33.59872,-15.58562 46.32337,-17.09028 3.4773,-0.41119 2.30053,0.10422 -4.14334,1.81472 -4.95,1.31396 -11.925,3.39032 -15.5,4.61412 -7.52215,2.57501 -27.42228,11.90196 -26.77509,12.54916 0.2406,0.24059 3.77592,-0.70443 7.85627,-2.10006 4.08035,-1.39563 16.86882,-5.23738 28.41882,-8.53723 11.55,-3.29986 21.7659,-6.23048 22.70199,-6.5125 1.60265,-0.48283 1.60265,-0.71256 0,-3.93601 -0.93849,-1.88761 -2.4755,-3.43428 -3.42631,-3.44785 -1.7565,-0.0251 -4.77568,-4.7134 -4.77568,-7.41592 0,-0.81986 -0.44697,-1.76689 -0.99326,-2.10451 -1.37163,-0.84772 -25.7593,5.12522 -35.49386,8.69303 -13.60631,4.98684 -27.76319,14.29908 -33.40885,21.97598 l -3.00408,4.08492 4.20002,2.15292 c 3.55227,1.82087 4.50424,1.9552 6.17254,0.87095 C 538.55738,503.57688 540.05137,503 540.79247,503 Z m -20.74281,0.47432 C 521.67235,502.6352 523,501.70377 523,501.4045 c 0,-1.61452 -6.63688,-9.77871 -11.94252,-14.6908 -9.81759,-9.08935 -22.27594,-15.59285 -42.66434,-22.27159 -12.30605,-4.03117 -12.97341,-4.0949 -14.42749,-1.37793 -0.84984,1.58794 -1.72887,1.9271 -3.80995,1.47002 -2.19446,-0.48199 -3.34849,0.0695 -6.11212,2.92083 -1.87378,1.93326 -3.21263,3.6746 -2.97523,3.86965 0.23741,0.19505 4.48165,1.95863 9.43165,3.91906 18.39768,7.28634 63.05042,26.88637 64.46429,28.29618 1.78858,1.78344 1.50258,1.78713 5.08537,-0.0656 z M 756.5,468.3105 c 7.63898,-1.88183 11.18581,-4.09215 17.29785,-10.77969 C 783.57828,446.82946 790,429.02227 790,412.60286 v -7.48146 l -4.25,1.4182 c -9.23876,3.08293 -22.6076,4.69807 -43.04075,5.19991 -27.59725,0.67779 -40.42683,-0.74215 -58.0332,-6.42294 -1.69436,-0.5467 -1.77424,-0.0637 -1.12434,6.79746 1.04994,11.0846 4.86678,24.97705 9.10073,33.12467 5.20813,10.0223 14.92798,19.72826 22.63507,22.60275 7.25679,2.70654 9.05978,2.70099 12.76618,-0.0393 4.05011,-2.99438 9.42711,-2.77594 12.7198,0.51675 2.77169,2.7717 4.44465,2.7708 15.72651,-0.008 z m -218,-21.67185 c 8.25612,-2.2087 15.1971,-6.34337 21.68331,-12.9165 3.37693,-3.42218 5.85628,-5.43465 5.50966,-4.47215 -0.89656,2.48966 0.63466,2.26474 12.35494,-1.81482 10.9714,-3.8189 31.58233,-13.74161 38.95209,-18.7527 7.54224,-5.12836 18.02797,-15.78454 23.06807,-23.44306 6.51527,-9.90005 8.38943,-15.78179 8.41284,-26.40231 0.0217,-9.84066 0.79777,-10.07412 4.95233,-1.48976 l 2.49372,5.15265 0.0365,-5.35566 c 0.0726,-10.64745 -4.76195,-23.59487 -11.66227,-31.2327 -6.48968,-7.1833 -6.21791,-7.24735 -16.89483,3.98165 -5.23281,5.50338 -10.38994,10.2841 -11.46029,10.62382 -1.28874,0.40903 -1.94797,1.52379 -1.95167,3.30028 -0.0104,5.00604 -2.11609,10.31152 -5.64109,14.21327 -2.74779,3.04148 -3.3557,4.38653 -2.7892,6.17138 0.65005,2.04815 0.55236,2.13953 -0.95231,0.89076 -2.83258,-2.35083 -8.82621,0.3468 -13.75343,6.19019 -2.86665,3.39968 -6.17572,5.9065 -10.41609,7.89081 l -6.2147,2.90821 -2.13129,9.22318 c -2.53398,10.96587 -5.01645,15.52884 -8.86744,16.29904 -2.09138,0.41827 -3.19604,1.5841 -4.5091,4.75877 -2.42257,5.85722 -7.03846,11.15192 -12.54339,14.38799 -4.259,2.50365 -5.56891,2.74901 -14.67638,2.74901 -11.30913,0 -15.49507,-1.47625 -24.60538,-8.67753 -10.24157,-8.0955 -20.35851,-25.58174 -25.27362,-43.68325 -3.45812,-12.73567 -6.62621,-14.71594 -12.871,-8.04523 -1.7517,1.87117 -2.75,2.40439 -2.75,1.46884 0,-2.60498 2.24508,-6.49339 4.6644,-8.07859 2.23616,-1.46519 2.27924,-1.69256 0.84588,-4.46437 C 470.67962,356.41357 470,354.04201 470,352.74974 c 0,-2.06314 -0.71987,-2.49827 -5.90463,-3.56917 -9.29841,-1.92055 -19.45862,-7.58145 -27.75974,-15.46669 l -7.3694,-7.00022 -12.23312,0.0405 c -13.53582,0.0448 -23.57411,2.10466 -32.63722,6.69729 -2.80274,1.42026 -5.09589,2.33989 -5.09589,2.04363 0,-0.29626 2.69157,-2.2783 5.98127,-4.40454 7.97069,-5.15171 17.65467,-7.53278 30.76803,-7.56518 5.63712,-0.0139 10.24962,-0.17676 10.25,-0.36184 3.9e-4,-0.18509 -1.42558,-2.32259 -3.16882,-4.75 C 420.16887,314.70725 419.12509,314 416.31691,314 c -1.83923,0 -4.19556,-0.53178 -5.23631,-1.18173 -1.54316,-0.96373 -4.44629,-0.45627 -15.73643,2.75069 l -13.84417,3.93243 0.23948,5.52757 c 0.23611,5.44961 0.1869,5.55536 -3.48982,7.4993 -5.05369,2.67196 -10.78658,7.93833 -14.47088,13.29328 C 360.61335,350.42232 357.46297,359 358.93863,359 c 0.46363,0 2.8046,-0.89012 5.20217,-1.97804 7.49074,-3.39901 8.16005,-2.92079 5.14116,3.67334 -1.74231,3.8057 -2.75607,8.03594 -3.0555,12.75 -0.42643,6.71348 1.04014,15.59629 2.56208,15.51819 0.3913,-0.0201 1.98726,-2.04975 3.54658,-4.51037 1.55931,-2.46062 3.65885,-4.91471 4.66564,-5.45353 1.74987,-0.9365 1.7608,-0.80217 0.24805,3.04892 -1.4612,3.71986 -1.45056,4.3052 0.13886,7.63825 4.58601,9.61696 17.79323,20.79623 33.86885,28.66833 9.83046,4.81389 28.55108,11.39763 39.86708,14.02061 8.74825,2.02779 27.85768,4.6243 34.03323,4.6243 4.40934,0 4.922,-0.20009 3.84317,-1.5 -1.78934,-2.15602 0.28785,-1.84802 3.24983,0.48188 4.07535,3.20567 15.8134,8.82631 21.75017,10.41484 6.96447,1.86351 18.03007,1.97278 24.5,0.24193 z m 4,-40.64764 c 18.13072,-1.47664 20.41925,-1.93813 22.06475,-4.44948 0.79798,-1.21787 2.29074,-6.05763 3.31725,-10.75502 l 1.86639,-8.54072 -5.46032,-0.64175 c -3.00318,-0.35297 -6.74922,-1.30827 -8.32454,-2.1229 C 554.38822,378.66651 552.69241,378 552.19507,378 c -0.49733,0 -1.15611,4.3875 -1.46395,9.75 -0.86607,15.08668 -2.86024,17.69398 -2.38488,3.11814 l 0.37935,-11.63186 -5.51868,2.52653 c -3.49901,1.6019 -8.04711,2.70744 -12.4275,3.02086 l -6.90883,0.49432 0.65241,6.61101 c 1.0982,11.12834 2.37336,14.62442 5.47701,15.01622 0.275,0.0347 5.9,-0.37667 12.5,-0.91421 z m -7.64761,-26.05277 c 5.64188,-1.20997 13.29507,-5.70619 15.53294,-9.12554 0.83247,-1.27199 1.81434,-4.19701 2.18192,-6.50006 0.65351,-4.09448 0.58736,-4.2212 -2.98171,-5.71245 C 540.53494,354.81861 525,342.09585 525,338.4652 c 0,-2.37812 -1.33809,-1.72066 -5.66777,2.7848 -3.43753,3.57709 -4.17744,5.09746 -4.67322,9.60245 -1.04524,9.4977 -8.20843,18.10743 -16.43386,19.75252 -1.77383,0.35477 -3.22515,1.0061 -3.22515,1.44741 0,1.26509 10.37045,5.84221 16.72515,7.38185 7.07608,1.71441 16.52332,1.92029 23.12724,0.50401 z M 500.7265,367.27862 c 7.69774,-3.54099 13.14002,-13.45823 11.84156,-21.57837 -1.64017,-10.25704 -8.53142,-16.78065 -18.48705,-17.50077 -19.71745,-1.42623 -29.71017,23.3828 -14.71965,36.54465 2.02143,1.77483 4.90457,3.49784 6.40698,3.82889 1.50241,0.33106 3.18166,0.75102 3.73166,0.93324 1.68263,0.5575 7.81881,-0.66009 11.2265,-2.22764 z M 485.45042,364.5934 C 469.43095,357.61576 475.32563,332 492.95079,332 c 13.80426,0 21.06582,17.07786 11.76551,27.67034 -5.26358,5.99488 -12.53772,7.85367 -19.26588,4.92306 z m 113.68792,-2.00674 C 609.72243,358.16435 614.90666,344.89305 610.10996,334.5 606.98934,327.73854 599.93605,323 592.99228,323 583.62182,323 574,333.89227 574,344.5 c 0,4.4023 2.58306,11.41703 5.2838,14.34903 4.56855,4.95974 13.09021,6.56395 19.85454,3.73763 z M 473.63271,335.51477 c 0.31741,-0.82717 -0.65239,-2.93175 -2.18883,-4.75 -1.51732,-1.79562 -3.91921,-5.73977 -5.33753,-8.76477 -2.29965,-4.90469 -2.58026,-6.74475 -2.59256,-17 -0.008,-7.04346 0.50067,-12.95322 1.31376,-15.25 1.44399,-4.07891 3.17245,-4.99046 3.17245,-1.67308 0,3.25672 5.30062,7.92308 9,7.92308 4.21655,0 9,-4.70179 9,-8.84635 C 486,283.25953 481.63955,278 478.41111,278 c -3.69876,0 -2.86167,-1.82485 1.18535,-2.58407 8.68304,-1.62895 18.28684,5.39268 22.48185,16.43718 2.96575,7.80817 3.65858,20.73388 1.55177,28.95078 l -1.61631,6.30389 2.74312,2.37654 c 1.50871,1.30711 3.10369,2.02478 3.54439,1.59483 1.89373,-1.84748 3.67586,-12.32181 3.68685,-21.66919 C 512.02215,280.48602 496.25036,257 476.79276,257 c -22.74135,0 -35.3468,30.22041 -25.29246,60.63635 3.88938,11.76599 4.93413,13.08235 12.9997,16.37921 8.29124,3.3891 8.4006,3.40705 9.13271,1.49921 z m 42.15982,-2.63747 c 8.93557,-7.84554 25.19958,-12.67862 38.79734,-11.52919 l 7.14449,0.60393 -2.25691,-6.22602 c -3.45818,-9.53994 -4.78081,-20.06317 -4.25968,-33.89134 0.39511,-10.48439 0.87513,-13.33602 3.19997,-19.00998 8.82442,-21.53671 27.35545,-20.1018 39.01704,3.02119 7.0751,14.02873 9.27464,37.5692 4.94899,52.96638 -0.63406,2.25695 -0.53455,2.2393 4.15987,-0.73781 2.64521,-1.67754 6.37052,-3.34293 8.27846,-3.70086 l 3.46899,-0.65079 -0.6357,-11.11141 c -1.01968,-17.82306 -5.86815,-37.12526 -12.78662,-50.90473 -3.80201,-7.57243 -11.12459,-18.65892 -14.28549,-21.62843 -2.20495,-2.07145 -2.17587,-1.88378 0.54356,3.50753 4.24054,8.40693 3.63416,9.12078 -3.11134,3.66275 -9.65657,-7.8135 -18.76666,-10.0117 -27.99625,-6.75531 -5.13133,1.81044 -6.01925,1.37331 -6.01925,-2.96333 0,-4.04977 3.97929,-7.84418 10.17224,-9.69963 3.40388,-1.01983 4.76708,-0.9644 8.20493,0.33359 8.27328,3.12365 8.26725,3.12322 5.12283,0.36544 -4.38078,-3.84212 -14.95032,-9.98623 -23.17415,-13.47121 -9.13864,-3.87265 -25.22477,-8.50896 -26.13198,-7.5317 -0.38163,0.41109 -0.10618,0.95673 0.61212,1.21253 3.58917,1.27818 9.86106,7.31637 12.08172,11.63153 3.01415,5.85707 3.40976,13.76067 0.81849,16.35195 -1.57123,1.57122 -1.85494,1.51382 -4.44231,-0.89872 -4.08587,-3.8098 -11.77217,-7.74664 -18.1437,-9.29301 -4.57094,-1.10937 -5.06011,-1.40773 -2.62019,-1.59814 7.18261,-0.56051 17.21273,1.8115 19.54548,4.62229 3.68874,4.44467 3.25088,-1.3641 -0.61422,-8.14832 -4.29481,-7.53845 -12.77712,-12.402 -21.64914,-12.41307 l -5.28212,-0.007 3,-1.98791 c 4.77578,-3.16462 12.49045,-5.33726 19.24988,-5.42125 3.43743,-0.0427 6.24993,-0.44046 6.25,-0.88389 7e-5,-0.44343 -2.13738,-1.79343 -4.74988,-3 C 528.23173,185.83795 525.72844,185.5 516,185.5 c -9.72844,0 -12.23173,0.33795 -16.25,2.19377 -2.6125,1.20657 -4.75,1.85717 -4.75,1.44578 0,-1.2589 6.04546,-10.47306 8.7781,-13.37912 1.41685,-1.50676 2.3586,-2.95706 2.09277,-3.22289 -0.90356,-0.90357 -8.34892,1.6472 -15.09873,5.1728 -3.70032,1.93277 -9.60136,6.14717 -13.11343,9.36534 -5.16482,4.73262 -6.48791,6.5751 -6.92094,9.63777 -0.29445,2.0826 -1.11276,5.13655 -1.81847,6.78655 -1.13549,2.65488 -1.42207,0.52661 -2.49105,-18.5 -1.8069,-32.16053 -3.98828,-49.03883 -8.99372,-69.58852 C 451.8016,92.285657 442.2828,68.669531 433.2088,55.307479 428.1511,47.859684 418.5842,38.94531 412.47506,35.987929 403.08917,31.444294 388.79815,32.528614 376.5714,38.712093 362.77022,45.691814 350.58336,55.99096 334.5,74.26675 c -6.05,6.874715 -11.15442,12.36016 -11.34316,12.189876 -0.78764,-0.710635 7.23409,-14.486863 12.32739,-21.170618 l 5.49737,-7.213991 -5.1723,-1.536009 c -8.60785,-2.556255 -16.89256,-1.608523 -26.02164,2.976753 -7.07897,3.555562 -11.32291,7.183769 -17.40282,14.877933 -10.83605,13.713065 -17.2398,31.635856 -18.11441,50.698556 -0.68007,14.82249 0.75051,23.14588 5.76973,33.56947 6.353,13.19348 14.01971,18.52731 27.53483,19.15632 6.67673,0.31074 9.3195,-0.057 15.26197,-2.12356 27.69607,-9.63174 51.99368,-38.33126 81.77159,-96.585826 4.8903,-9.56689 9.01966,-16.744134 9.17637,-15.949432 0.1567,0.794702 -0.38552,4.318829 -1.20495,7.831392 l -1.48986,6.386478 3.75853,4.077524 c 7.40109,8.029235 18.25637,30.245054 24.45507,50.048384 5.3889,17.21623 9.7013,39.56052 12.22585,63.34709 1.86423,17.56497 1.9635,16.43044 -1.62298,18.54902 l -3.09343,1.82733 -4.02487,-3.86172 C 425.68818,194.95477 404.32672,166.65083 388.99509,140.08573 386.11107,135.08858 383.62494,131 383.47036,131 c -0.15457,0 -2.65387,3.2625 -5.554,7.25 -2.90012,3.9875 -6.36723,8.4513 -7.70468,9.91956 l -2.43173,2.66956 6.06298,8.83044 c 10.86397,15.82285 19.18191,25.50563 39.31362,45.76436 10.89492,10.96366 19.63367,20.10919 19.41945,20.32341 -0.21422,0.21422 -2.94245,-0.81825 -6.06273,-2.29438 l -5.67324,-2.68387 -3.04297,2.86046 c -5.65355,5.31447 -16.37148,19.29601 -20.63325,26.91607 -8.57274,15.32808 -13.46234,31.05873 -15.39271,49.52079 -0.62622,5.9892 -0.93805,11.08999 -0.69294,11.33509 0.73762,0.73762 27.21714,-7.84036 30.06595,-9.7398 4.97493,-3.31701 10.84581,0.35784 10.86483,6.80082 0.006,2.10154 1.54848,5.01105 5.04265,9.51296 l 5.03371,6.48547 8.10093,1.74271 c 4.45551,0.95849 8.96569,2.01718 10.02262,2.35264 1.86256,0.59115 1.85866,0.48637 -0.12656,-3.40498 -6.28155,-12.31287 -8.47322,-34.06322 -4.70181,-46.66131 5.44366,-18.18409 18.3591,-28.87534 32.81434,-27.16333 6.39612,0.75752 16.0833,6.00875 20.4641,11.09317 4.84068,5.61816 11.83512,20.55747 13.84448,29.57016 2.30838,10.35395 2.19545,26.57264 -0.24412,35.06049 -1.73441,6.0344 -1.91573,8.93951 -0.55796,8.93951 0.29406,0 2.1351,-1.40521 4.09121,-3.1227 z m 83.70544,-13.8709 c 1.29624,-4.08411 2.14935,-22.1648 1.32888,-28.16423 -2.24718,-16.43173 -9.42079,-30.57447 -18.23431,-35.94889 -10.88468,-6.63739 -21.92152,3.27358 -24.58883,22.08054 -0.55707,3.92786 -0.72323,8.2955 -0.36926,9.70587 l 0.6436,2.5643 1.48126,-3.372 1.48126,-3.37199 0.85978,2.99884 c 2.34173,8.16775 13.15261,7.05159 14.52039,-1.49915 0.73623,-4.60258 -2.34103,-8.72673 -6.8949,-9.24057 l -3.22584,-0.36398 3.87693,-1.76403 c 11.14148,-5.06943 21.85132,5.06657 24.69087,23.36793 1.17659,7.58333 0.70669,13.55438 -1.57582,20.02368 -1.22315,3.4668 -1.19048,3.90084 0.32378,4.30062 3.58629,0.94682 5.07309,0.60223 5.68221,-1.31694 z M 565.28055,198.30802 c 1.7707,-2.03058 9.0244,-10.24308 16.11933,-18.25 C 601.21056,157.70089 629,122.9208 629,120.48372 c 0,-0.36952 -2.44059,-4.0138 -5.42353,-8.09839 -2.98295,-4.0846 -5.65683,-7.97976 -5.94196,-8.65593 -0.35735,-0.84741 -0.88261,-0.64991 -1.69053,0.63562 -5.70597,9.07922 -21.22391,31.68132 -31.15451,45.37699 -25.2646,34.84335 -33.77427,46.77693 -33.78175,47.37407 -0.006,0.45717 8.64599,4.32739 10.77283,4.81906 0.1543,0.0357 1.7293,-1.59653 3.5,-3.62712 z m -22.39066,-31.56027 c 11.36782,-44.66377 27.62734,-80.62623 43.42367,-96.043479 4.66502,-4.553073 4.8287,-4.889589 3.2349,-6.650723 -2.78378,-3.076042 -0.0723,-3.215626 4.07703,-0.209879 5.32852,3.859957 11.87649,11.326506 21.01445,23.96244 22.9472,31.731291 35.61192,46.440161 49.76231,57.794231 28.3014,22.70863 54.01565,21.40923 61.1376,-3.08941 2.71801,-9.34963 1.63281,-26.09506 -2.52812,-39.01093 -8.74199,-27.135777 -26.27366,-49.212769 -45.75485,-57.617403 -5.68318,-2.451856 -17.58133,-3.541014 -21.58796,-1.976166 l -2.83108,1.105721 6.02389,5.931091 C 664.82043,56.810144 674,68.552759 674,70.308292 674,70.807761 670.0625,67.633996 665.25,63.25548 638.37361,38.802763 618.54999,28 600.55439,28 c -6.1342,0 -8.20644,0.485463 -13.62038,3.190839 -12.72157,6.357044 -27.61923,24.26184 -38.9135,46.768287 -14.20441,28.305604 -21.09652,53.367054 -26.58125,96.656194 l -0.52141,4.11532 4.43018,0.49934 c 2.4366,0.27464 6.16759,1.40152 8.29108,2.50418 2.12349,1.10266 4.08589,2.06255 4.36089,2.13309 0.275,0.0705 2.47545,-7.63323 4.88989,-17.1195 z"
       id="path1" />
  </g>
</svg>
